<svg width="68" height="17" viewBox="0 0 68 17" fill="none" xmlns="http://www.w3.org/2000/svg">
<path d="M8.02 16.264C6.45067 16.264 5.06467 15.9267 3.862 15.252C2.65933 14.5627 1.71333 13.624 1.024 12.436C0.349333 11.2333 0.0120001 9.862 0.0120001 8.322C0.0120001 6.75267 0.349333 5.374 1.024 4.186C1.71333 2.98333 2.65933 2.04467 3.862 1.37C5.06467 0.680666 6.45067 0.336 8.02 0.336C8.84133 0.336 9.64067 0.475333 10.418 0.754C11.1953 1.018 11.9067 1.38467 12.552 1.854C13.1973 2.32333 13.718 2.85867 14.114 3.46L12.64 4.472C12.3467 4.00267 11.9507 3.58467 11.452 3.218C10.9533 2.83667 10.4033 2.54333 9.802 2.338C9.21533 2.13267 8.62133 2.03 8.02 2.03C6.832 2.03 5.776 2.30133 4.852 2.844C3.928 3.372 3.202 4.10533 2.674 5.044C2.146 5.98267 1.882 7.07533 1.882 8.322C1.882 9.52467 2.13867 10.6027 2.652 11.556C3.18 12.4947 3.906 13.2353 4.83 13.778C5.76867 14.3207 6.832 14.592 8.02 14.592C9.01733 14.592 9.89733 14.3867 10.66 13.976C11.4373 13.5507 12.046 12.9713 12.486 12.238C12.926 11.49 13.146 10.632 13.146 9.664L14.928 9.532C14.928 10.8813 14.6347 12.062 14.048 13.074C13.4613 14.0713 12.6473 14.856 11.606 15.428C10.5647 15.9853 9.36933 16.264 8.02 16.264ZM9.362 9.752V8.146H14.928V9.598L14.048 9.752H9.362ZM16.9248 16V5H18.6848V16H16.9248ZM17.8268 2.448C17.5335 2.448 17.2768 2.338 17.0568 2.118C16.8368 1.898 16.7268 1.64133 16.7268 1.348C16.7268 1.04 16.8368 0.783333 17.0568 0.577999C17.2768 0.357999 17.5335 0.248 17.8268 0.248C18.1348 0.248 18.3915 0.357999 18.5968 0.577999C18.8168 0.783333 18.9268 1.04 18.9268 1.348C18.9268 1.64133 18.8168 1.898 18.5968 2.118C18.3915 2.338 18.1348 2.448 17.8268 2.448ZM25.6241 16.264C24.5535 16.264 23.7248 15.9853 23.1381 15.428C22.5515 14.8707 22.2581 14.086 22.2581 13.074V1.568H24.0181V12.898C24.0181 13.4553 24.1648 13.888 24.4581 14.196C24.7661 14.4893 25.1915 14.636 25.7341 14.636C25.9101 14.636 26.0788 14.614 26.2401 14.57C26.4161 14.5113 26.6435 14.3793 26.9221 14.174L27.6041 15.604C27.2228 15.8533 26.8781 16.022 26.5701 16.11C26.2621 16.2127 25.9468 16.264 25.6241 16.264ZM20.3441 6.562V5H27.3181V6.562H20.3441ZM40.4506 16V0.599999H42.2986V16H40.4506ZM29.8686 16V0.599999H31.7386V16H29.8686ZM31.5186 8.916V7.222H40.8466V8.916H31.5186ZM52.9901 16L52.8801 13.976V5H54.6401V16H52.9901ZM45.1581 10.632V5H46.9181V10.632H45.1581ZM46.9181 10.632C46.9181 11.7173 47.0427 12.546 47.2921 13.118C47.5414 13.69 47.8861 14.086 48.3261 14.306C48.7807 14.5113 49.2867 14.614 49.8441 14.614C50.7974 14.614 51.5381 14.2693 52.0661 13.58C52.6087 12.8907 52.8801 11.93 52.8801 10.698H53.7381C53.7381 11.8567 53.5694 12.854 53.2321 13.69C52.8947 14.526 52.4034 15.164 51.7581 15.604C51.1274 16.044 50.3501 16.264 49.4261 16.264C48.5754 16.264 47.8274 16.0953 47.1821 15.758C46.5367 15.406 46.0381 14.856 45.6861 14.108C45.3341 13.3453 45.1581 12.3627 45.1581 11.16V10.632H46.9181ZM57.2716 16V0.599999H59.0316V13.954L58.9436 16H57.2716ZM62.7496 16.264C61.8256 16.264 61.0116 16.022 60.3076 15.538C59.6183 15.054 59.083 14.3793 58.7016 13.514C58.3203 12.634 58.1296 11.6293 58.1296 10.5C58.1296 9.356 58.3203 8.35133 58.7016 7.486C59.083 6.62067 59.6183 5.946 60.3076 5.462C61.0116 4.978 61.8256 4.736 62.7496 4.736C63.7323 4.736 64.5976 4.978 65.3456 5.462C66.0936 5.946 66.673 6.62067 67.0836 7.486C67.509 8.35133 67.7216 9.356 67.7216 10.5C67.7216 11.6293 67.509 12.634 67.0836 13.514C66.673 14.3793 66.0936 15.054 65.3456 15.538C64.5976 16.022 63.7323 16.264 62.7496 16.264ZM62.3536 14.658C63.043 14.658 63.6516 14.482 64.1796 14.13C64.7223 13.778 65.1476 13.2867 65.4556 12.656C65.7783 12.0253 65.9396 11.3067 65.9396 10.5C65.9396 9.69333 65.7856 8.97467 65.4776 8.344C65.1843 7.71333 64.7663 7.222 64.2236 6.87C63.681 6.518 63.065 6.342 62.3756 6.342C61.7303 6.342 61.151 6.518 60.6376 6.87C60.139 7.222 59.743 7.71333 59.4496 8.344C59.171 8.97467 59.0316 9.69333 59.0316 10.5C59.0316 11.3067 59.171 12.0253 59.4496 12.656C59.743 13.2867 60.139 13.778 60.6376 14.13C61.1363 14.482 61.7083 14.658 62.3536 14.658Z" fill="#CBCBFF"/>
</svg>
