<svg width="18" height="18" viewBox="0 0 18 18" fill="none" xmlns="http://www.w3.org/2000/svg">
<path d="M5.32502 12.675H3.48752C2.4727 12.675 1.65002 11.8523 1.65002 10.8375V3.4875C1.65002 2.47268 2.4727 1.65 3.48752 1.65H10.8375C11.8523 1.65 12.675 2.47268 12.675 3.4875V5.325M7.16252 16.35H14.5125C15.5273 16.35 16.35 15.5273 16.35 14.5125V7.1625C16.35 6.14768 15.5273 5.325 14.5125 5.325H7.16252C6.1477 5.325 5.32502 6.14768 5.32502 7.1625V14.5125C5.32502 15.5273 6.1477 16.35 7.16252 16.35Z" stroke="url(#paint0_linear_9894_2269)" stroke-width="1.67" stroke-linecap="round" stroke-linejoin="round"/>
<defs>
<linearGradient id="paint0_linear_9894_2269" x1="1.08099" y1="-6.60461" x2="26.6787" y2="2.82687" gradientUnits="userSpaceOnUse">
<stop stop-color="#0026FF"/>
<stop offset="1" stop-color="#C1A4FF"/>
</linearGradient>
</defs>
</svg>
